<svg id="Layer_1" data-name="Layer 1" xmlns="http://www.w3.org/2000/svg" viewBox="0 0 1029.7 537.4"><g id="Path_26" data-name="Path 26" style="opacity:0.023000000044703484"><path d="M1026.3,536,95.2,281.8,194,30.9Z" style="fill:#fff"/><path d="M194.2,31.7,95.9,281.4,1023,534.6,194.2,31.7m-.4-1.5,835.9,507.2L94.5,282.1Z" style="fill:#707070"/></g><g id="Ellipse_4" data-name="Ellipse 4"><ellipse cx="124.5" cy="141.5" rx="124.5" ry="141.5" style="fill:#a3a3a3"/><ellipse cx="124.5" cy="141.5" rx="124" ry="141" style="fill:none;stroke:#707070"/></g><path id="Path_6" data-name="Path 6" d="M80.6,55.1c-3,5.5-6,10.1-8.3,15.1C66.6,82.6,68.6,92,78,96.8c11.5,6,24,7.4,36.6,7.8.8,0,2.3-1.9,2.7-3.3,3.5-12.1,6.9-24.2,10.4-36.4.3-.9.7-1.8,1.3-3.6,1,4.9,1.6,9.1,2.6,12.9.4,1.5,1.8,3.1,2.9,3.3,9.4,2,9.4,2,14.6-9.4l2.2-4.5c.2,7.2.4,13,.6,18.8.3,7.8.5,15.7.9,23.5.1,1.4,1.1,3.5,2,3.7,12,2.6,24.2,4.2,36.6,1.4s15.2-11,12.5-25.3c-1.1-5.3-2.8-10.2-4.3-15.6.6.1,1.2,0,1.5.3,16,15,28.4,33.8,31.8,61.3s-4,50.3-18.7,70.2A94.4,94.4,0,0,1,184,228.6c1.7-9.1,3.3-17.8,4.9-26.6a37.7,37.7,0,0,0,.4-6.7c-.1-17.1-8-22.9-19.4-14.4l-3.6,3c-.2-1.5-.4-2.7-.6-4-1.1-7.4-4.1-12.3-9.5-14.2s-10,.1-14.1,5.5c-7.6,9.9-12.5,22.2-17.4,34.6l-3.2,8.1c-.9-6.5-1.4-12-2.5-17.2-2-9.3-4.1-18.6-6.7-27.6-2.1-7.3-6.6-10.9-12.6-10.4s-10.8,5-13.5,13.1a14.2,14.2,0,0,1-.8,1.8c-2-2.3-4-4.6-6.2-6.7-7.2-6.2-15.4-2.6-18,9.2-2.2,9.6-2.5,19.7-3.5,29.6q-.2,3.3,0,6.6l-.7.4c-15.6-15.2-27.2-34.4-29.8-61.8s5.6-50.2,20.7-69.5A97.9,97.9,0,0,1,78.3,55.7,8.6,8.6,0,0,1,80.6,55.1Z" style="fill:#383838"/></svg>